<?xml version="1.0" encoding="UTF-8"?>
<!DOCTYPE svg PUBLIC "-//W3C//DTD SVG 1.1//EN" "http://www.w3.org/Graphics/SVG/1.1/DTD/svg11.dtd">
<svg xmlns="http://www.w3.org/2000/svg" version="1.1" width="500px" height="254px" style="shape-rendering:geometricPrecision; text-rendering:geometricPrecision; image-rendering:optimizeQuality; fill-rule:evenodd; clip-rule:evenodd" xmlns:xlink="http://www.w3.org/1999/xlink">
<g><path style="opacity:1" fill="#a0b926" d="M 259.5,31.5 C 259.631,32.2389 259.464,32.9056 259,33.5C 256.743,35.0456 254.576,36.7123 252.5,38.5C 251.614,39.325 251.281,40.325 251.5,41.5C 250.127,41.3433 248.793,41.51 247.5,42C 243.34,44.0226 239.34,46.1892 235.5,48.5C 235.833,47.8333 236.167,47.1667 236.5,46.5C 237.209,45.596 238.209,45.2627 239.5,45.5C 239.67,44.1779 239.337,43.0113 238.5,42C 241.702,41.8022 244.702,40.9689 247.5,39.5C 247.291,38.914 246.957,38.414 246.5,38C 243.67,36.0015 240.836,34.8349 238,34.5C 237.691,35.7659 237.191,36.9326 236.5,38C 234.414,38.3153 232.414,38.8153 230.5,39.5C 228.833,40.1667 227.167,40.8333 225.5,41.5C 232.643,35.0493 240.643,29.7159 249.5,25.5C 253.229,27.023 256.562,29.023 259.5,31.5 Z"/></g>
<g><path style="opacity:0.946" fill="#bebd13" d="M 259.5,31.5 C 260.71,31.9321 261.71,32.5987 262.5,33.5C 264.477,36.3935 266.81,39.0602 269.5,41.5C 265.698,47.1231 261.698,47.4564 257.5,42.5C 255.547,41.8444 253.547,41.5111 251.5,41.5C 251.281,40.325 251.614,39.325 252.5,38.5C 254.576,36.7123 256.743,35.0456 259,33.5C 259.464,32.9056 259.631,32.2389 259.5,31.5 Z"/></g>
<g><path style="opacity:0.939" fill="#a2ca13" d="M 236.5,46.5 C 234.974,45.8953 233.974,44.7286 233.5,43C 232.552,42.5172 231.552,42.3505 230.5,42.5C 230.5,41.5 230.5,40.5 230.5,39.5C 232.414,38.8153 234.414,38.3153 236.5,38C 237.191,36.9326 237.691,35.7659 238,34.5C 240.836,34.8349 243.67,36.0015 246.5,38C 246.957,38.414 247.291,38.914 247.5,39.5C 244.702,40.9689 241.702,41.8022 238.5,42C 239.337,43.0113 239.67,44.1779 239.5,45.5C 238.209,45.2627 237.209,45.596 236.5,46.5 Z"/></g>
<g><path style="opacity:0.945" fill="#c3af33" d="M 262.5,33.5 C 267.765,36.4347 272.432,40.1014 276.5,44.5C 272.848,45.6593 269.515,47.326 266.5,49.5C 267.193,50.5178 267.859,51.5178 268.5,52.5C 262.655,49.0794 256.988,45.4128 251.5,41.5C 253.547,41.5111 255.547,41.8444 257.5,42.5C 261.698,47.4564 265.698,47.1231 269.5,41.5C 266.81,39.0602 264.477,36.3935 262.5,33.5 Z"/></g>
<g><path style="opacity:0.933" fill="#84ba2f" d="M 230.5,39.5 C 230.5,40.5 230.5,41.5 230.5,42.5C 231.552,42.3505 232.552,42.5172 233.5,43C 233.974,44.7286 234.974,45.8953 236.5,46.5C 236.167,47.1667 235.833,47.8333 235.5,48.5C 233.2,50.984 230.533,52.984 227.5,54.5C 228.768,53.213 228.435,52.213 226.5,51.5C 228.019,46.9149 226.352,45.4149 221.5,47C 219.886,49.1267 217.886,50.6267 215.5,51.5C 216.833,49.8333 218.167,48.1667 219.5,46.5C 220.911,44.086 222.911,42.4194 225.5,41.5C 227.167,40.8333 228.833,40.1667 230.5,39.5 Z"/></g>
<g><path style="opacity:0.976" fill="#dfc686" d="M 268.5,52.5 C 271.089,53.4194 273.089,55.086 274.5,57.5C 271.911,56.5806 269.911,54.914 268.5,52.5 Z"/></g>
<g><path style="opacity:0.943" fill="#bb8c1f" d="M 276.5,44.5 C 280.436,46.7657 283.769,49.7657 286.5,53.5C 282.128,54.5389 279.461,57.2055 278.5,61.5C 276.833,60.5 275.5,59.1667 274.5,57.5C 273.089,55.086 271.089,53.4194 268.5,52.5C 267.859,51.5178 267.193,50.5178 266.5,49.5C 269.515,47.326 272.848,45.6593 276.5,44.5 Z"/></g>
<g><path style="opacity:0.937" fill="#80ba53" d="M 227.5,54.5 C 224.5,58.1667 221.167,61.5 217.5,64.5C 218.379,62.772 219.046,60.9386 219.5,59C 219.215,57.1105 218.215,55.7771 216.5,55C 218.677,54.6551 220.677,55.1551 222.5,56.5C 224.056,55.4529 225.723,54.7863 227.5,54.5 Z"/></g>
<g><path style="opacity:0.851" fill="#e2c18b" d="M 286.5,53.5 C 288.914,54.9108 290.581,56.9108 291.5,59.5C 289.086,58.0892 287.419,56.0892 286.5,53.5 Z"/></g>
<g><path style="opacity:0.718" fill="#aed593" d="M 219.5,46.5 C 218.167,48.1667 216.833,49.8333 215.5,51.5C 214.167,52.1667 213.167,53.1667 212.5,54.5C 210.167,56.5 207.833,58.5 205.5,60.5C 209.167,54.8333 213.833,50.1667 219.5,46.5 Z"/></g>
<g><path style="opacity:0.937" fill="#54a820" d="M 227.5,54.5 C 225.723,54.7863 224.056,55.4529 222.5,56.5C 220.677,55.1551 218.677,54.6551 216.5,55C 218.215,55.7771 219.215,57.1105 219.5,59C 219.046,60.9386 218.379,62.772 217.5,64.5C 217.5,65.1667 217.167,65.5 216.5,65.5C 215.092,63.8684 213.592,62.2018 212,60.5C 211.536,61.0944 211.369,61.7611 211.5,62.5C 210.022,62.762 208.689,62.4287 207.5,61.5C 209.605,59.4084 211.272,57.0751 212.5,54.5C 213.167,53.1667 214.167,52.1667 215.5,51.5C 217.886,50.6267 219.886,49.1267 221.5,47C 226.352,45.4149 228.019,46.9149 226.5,51.5C 228.435,52.213 228.768,53.213 227.5,54.5 Z"/></g>
<g><path style="opacity:0.941" fill="#ba7425" d="M 286.5,53.5 C 287.419,56.0892 289.086,58.0892 291.5,59.5C 292.5,59.8333 293.167,60.5 293.5,61.5C 293.5,62.1667 293.5,62.8333 293.5,63.5C 291.645,61.9669 289.812,60.3003 288,58.5C 286.826,60.6709 285.66,62.8376 284.5,65C 286.916,66.4738 287.916,68.6405 287.5,71.5C 284.51,68.2077 281.51,64.8743 278.5,61.5C 279.461,57.2055 282.128,54.5389 286.5,53.5 Z"/></g>
<g><path style="opacity:1" fill="#191919" d="M 241.5,62.5 C 241.427,64.0269 242.094,65.0269 243.5,65.5C 245.511,67.667 246.678,70.3337 247,73.5C 249.13,84.0514 245.464,87.0514 236,82.5C 235.505,80.5273 235.338,78.5273 235.5,76.5C 235.5,75.5 235.5,74.5 235.5,73.5C 234.209,73.2627 233.209,73.596 232.5,74.5C 228.392,78.1135 225.225,82.4469 223,87.5C 222.333,89.1667 222.333,90.8333 223,92.5C 228.253,95.8763 233.42,99.3763 238.5,103C 241.447,105.436 243.78,108.269 245.5,111.5C 246.275,116.797 246.608,122.13 246.5,127.5C 246.662,132.182 245.495,136.515 243,140.5C 241.2,142.317 239.034,143.484 236.5,144C 223.771,144.488 211.771,141.988 200.5,136.5C 200.027,135.094 199.027,134.427 197.5,134.5C 191.879,130.801 190.379,125.801 193,119.5C 193.92,115.737 195.42,112.237 197.5,109C 200.227,107.364 202.893,107.198 205.5,108.5C 206.219,110.764 206.552,113.097 206.5,115.5C 206.414,117.677 205.747,119.677 204.5,121.5C 204.977,122.931 205.643,124.264 206.5,125.5C 211.171,128.28 216.171,130.28 221.5,131.5C 223.29,132.997 225.456,133.664 228,133.5C 229.707,133.492 231.207,133.158 232.5,132.5C 235.272,127.259 236.105,121.592 235,115.5C 233.333,114.267 231.833,112.933 230.5,111.5C 230.027,110.094 229.027,109.427 227.5,109.5C 227.027,108.094 226.027,107.427 224.5,107.5C 221.553,106.219 219.219,104.219 217.5,101.5C 217.027,100.094 216.027,99.427 214.5,99.5C 212.086,98.0892 210.419,96.0892 209.5,93.5C 209.368,90.4299 209.701,87.4299 210.5,84.5C 210.427,82.9731 211.094,81.9731 212.5,81.5C 213.906,81.0269 214.573,80.0269 214.5,78.5C 219.982,70.1802 227.149,63.8469 236,59.5C 238.399,59.6132 240.232,60.6132 241.5,62.5 Z"/></g>
<g><path style="opacity:1" fill="#171717" d="M 286.5,99.5 C 285.957,99.56 285.624,99.8933 285.5,100.5C 286.325,101.386 287.325,101.719 288.5,101.5C 298.21,105.709 304.544,112.876 307.5,123C 307.405,126.855 305.738,129.855 302.5,132C 291.474,138.18 279.808,142.68 267.5,145.5C 264.824,145.061 262.491,144.061 260.5,142.5C 260.027,141.094 259.027,140.427 257.5,140.5C 256.072,137.697 255.405,134.697 255.5,131.5C 255.473,125.949 254.806,120.616 253.5,115.5C 252.792,100.177 252.459,84.8437 252.5,69.5C 252.232,67.901 252.566,66.5676 253.5,65.5C 254.906,65.0269 255.573,64.0269 255.5,62.5C 256.777,61.1024 258.443,60.4357 260.5,60.5C 263.702,61.0993 266.702,62.266 269.5,64C 274.667,68.5 279.5,73.3333 284,78.5C 287.692,82.8522 290.526,87.6855 292.5,93C 291.731,96.2701 289.731,98.4367 286.5,99.5 Z M 263.5,75.5 C 267.147,75.6216 269.981,77.2882 272,80.5C 274.366,84.0364 276.533,87.703 278.5,91.5C 275.375,97.0628 270.708,99.3961 264.5,98.5C 263.749,97.624 263.249,96.624 263,95.5C 262.208,88.7526 262.374,82.0859 263.5,75.5 Z M 285.5,110.5 C 285.973,111.906 286.973,112.573 288.5,112.5C 291.087,114.92 293.087,117.754 294.5,121C 291.535,124.486 287.869,126.986 283.5,128.5C 280.603,129.129 277.936,130.129 275.5,131.5C 272.833,131.5 270.167,131.5 267.5,131.5C 265.786,124.93 265.286,118.263 266,111.5C 272.278,107.838 278.778,107.504 285.5,110.5 Z"/></g>
<g><path style="opacity:0.953" fill="#d8aa83" d="M 293.5,61.5 C 295.587,62.5846 296.92,64.2512 297.5,66.5C 296.167,65.5 294.833,64.5 293.5,63.5C 293.5,62.8333 293.5,62.1667 293.5,61.5 Z"/></g>
<g><path style="opacity:0.612" fill="#797979" d="M 241.5,62.5 C 242.906,62.9731 243.573,63.9731 243.5,65.5C 242.094,65.0269 241.427,64.0269 241.5,62.5 Z"/></g>
<g><path style="opacity:0.4" fill="#9d9d9d" d="M 255.5,62.5 C 255.573,64.0269 254.906,65.0269 253.5,65.5C 253.427,63.9731 254.094,62.9731 255.5,62.5 Z"/></g>
<g><path style="opacity:0.931" fill="#339425" d="M 212.5,54.5 C 211.272,57.0751 209.605,59.4084 207.5,61.5C 208.689,62.4287 210.022,62.762 211.5,62.5C 212.461,64.2646 212.795,66.2646 212.5,68.5C 211.07,68.5792 209.736,68.2458 208.5,67.5C 208.568,68.8505 208.568,70.1838 208.5,71.5C 206.631,72.6236 204.631,73.4569 202.5,74C 200.985,76.9475 199.651,76.6142 198.5,73C 200.013,71.1208 200.679,68.9541 200.5,66.5C 201.419,63.9108 203.086,61.9108 205.5,60.5C 207.833,58.5 210.167,56.5 212.5,54.5 Z"/></g>
<g><path style="opacity:0.939" fill="#ba5c21" d="M 293.5,63.5 C 294.833,64.5 296.167,65.5 297.5,66.5C 300.556,68.9485 302.889,71.9485 304.5,75.5C 301.956,72.6935 300.956,73.3601 301.5,77.5C 295.588,76.8476 294.588,78.3476 298.5,82C 299.32,83.8003 299.986,85.6336 300.5,87.5C 299.833,87.1667 299.167,86.8333 298.5,86.5C 294.601,81.7156 290.934,76.7156 287.5,71.5C 287.916,68.6405 286.916,66.4738 284.5,65C 285.66,62.8376 286.826,60.6709 288,58.5C 289.812,60.3003 291.645,61.9669 293.5,63.5 Z"/></g>
<g><path style="opacity:0.067" fill="#cbcbcb" d="M 232.5,74.5 C 233.209,73.596 234.209,73.2627 235.5,73.5C 235.5,74.5 235.5,75.5 235.5,76.5C 234.778,75.4489 233.778,74.7822 232.5,74.5 Z"/></g>
<g><path style="opacity:0.929" fill="#3d933b" d="M 216.5,65.5 C 213.138,69.1925 209.805,72.8592 206.5,76.5C 206.44,75.9569 206.107,75.6236 205.5,75.5C 203.766,77.234 202.432,79.234 201.5,81.5C 196.67,83.4286 194.17,81.7619 194,76.5C 193.617,77.056 193.117,77.3893 192.5,77.5C 194.4,73.2679 197.067,69.6012 200.5,66.5C 200.679,68.9541 200.013,71.1208 198.5,73C 199.651,76.6142 200.985,76.9475 202.5,74C 204.631,73.4569 206.631,72.6236 208.5,71.5C 208.568,70.1838 208.568,68.8505 208.5,67.5C 209.736,68.2458 211.07,68.5792 212.5,68.5C 212.795,66.2646 212.461,64.2646 211.5,62.5C 211.369,61.7611 211.536,61.0944 212,60.5C 213.592,62.2018 215.092,63.8684 216.5,65.5 Z"/></g>
<g><path style="opacity:0.533" fill="#e2a78d" d="M 304.5,75.5 C 305.906,75.9731 306.573,76.9731 306.5,78.5C 305.094,78.0269 304.427,77.0269 304.5,75.5 Z"/></g>
<g><path style="opacity:0.58" fill="#848284" d="M 214.5,78.5 C 214.573,80.0269 213.906,81.0269 212.5,81.5C 212.427,79.9731 213.094,78.9731 214.5,78.5 Z"/></g>
<g><path style="opacity:0.537" fill="#dea086" d="M 306.5,78.5 C 307.906,78.9731 308.573,79.9731 308.5,81.5C 307.094,81.0269 306.427,80.0269 306.5,78.5 Z"/></g>
<g><path style="opacity:0.914" fill="#337c49" d="M 206.5,76.5 C 203.412,81.6803 200.078,86.6803 196.5,91.5C 193.994,92.8152 192.161,94.8152 191,97.5C 189.85,95.3591 188.35,93.5257 186.5,92C 187.287,89.9011 187.62,87.7345 187.5,85.5C 188.669,82.4887 190.336,79.822 192.5,77.5C 193.117,77.3893 193.617,77.056 194,76.5C 194.17,81.7619 196.67,83.4286 201.5,81.5C 202.432,79.234 203.766,77.234 205.5,75.5C 206.107,75.6236 206.44,75.9569 206.5,76.5 Z"/></g>
<g><path style="opacity:0.196" fill="#b0b0b0" d="M 210.5,84.5 C 209.701,87.4299 209.368,90.4299 209.5,93.5C 208.366,91.0336 208.199,88.367 209,85.5C 209.383,84.944 209.883,84.6107 210.5,84.5 Z"/></g>
<g><path style="opacity:0.141" fill="#f4c8ba" d="M 298.5,86.5 C 299.167,86.8333 299.833,87.1667 300.5,87.5C 300.5,88.1667 300.5,88.8333 300.5,89.5C 299.094,89.0269 298.427,88.0269 298.5,86.5 Z"/></g>
<g><path style="opacity:0.357" fill="#eab3aa" d="M 311.5,86.5 C 312.906,86.9731 313.573,87.9731 313.5,89.5C 312.094,89.0269 311.427,88.0269 311.5,86.5 Z"/></g>
<g><path style="opacity:0.976" fill="#ac2c0f" d="M 304.5,75.5 C 304.427,77.0269 305.094,78.0269 306.5,78.5C 306.427,80.0269 307.094,81.0269 308.5,81.5C 310.25,82.6594 311.25,84.326 311.5,86.5C 311.427,88.0269 312.094,89.0269 313.5,89.5C 316.008,93.1822 318.008,97.1822 319.5,101.5C 318.167,101.5 316.833,101.5 315.5,101.5C 315.262,104.069 313.929,105.735 311.5,106.5C 309.4,102.016 306.733,98.0158 303.5,94.5C 302.11,93.1007 301.11,91.4341 300.5,89.5C 300.5,88.8333 300.5,88.1667 300.5,87.5C 299.986,85.6336 299.32,83.8003 298.5,82C 294.588,78.3476 295.588,76.8476 301.5,77.5C 300.956,73.3601 301.956,72.6935 304.5,75.5 Z"/></g>
<g><path style="opacity:0.796" fill="#7c7c7c" d="M 214.5,99.5 C 216.027,99.427 217.027,100.094 217.5,101.5C 215.973,101.573 214.973,100.906 214.5,99.5 Z"/></g>
<g><path style="opacity:0.914" fill="#3a6c64" d="M 187.5,85.5 C 187.62,87.7345 187.287,89.9011 186.5,92C 188.35,93.5257 189.85,95.3591 191,97.5C 192.161,94.8152 193.994,92.8152 196.5,91.5C 193.403,98.6906 190.07,105.691 186.5,112.5C 186.216,109.746 185.549,107.08 184.5,104.5C 182.484,105.706 180.484,105.706 178.5,104.5C 179.309,102.929 179.643,101.262 179.5,99.5C 181.664,94.4997 184.331,89.833 187.5,85.5 Z"/></g>
<g><path style="opacity:0.765" fill="#8d8d8d" d="M 286.5,99.5 C 287.167,100.167 287.833,100.833 288.5,101.5C 287.325,101.719 286.325,101.386 285.5,100.5C 285.624,99.8933 285.957,99.56 286.5,99.5 Z"/></g>
<g><path style="opacity:0.976" fill="#c0644e" d="M 303.5,94.5 C 306.733,98.0158 309.4,102.016 311.5,106.5C 312.265,109.096 312.599,111.763 312.5,114.5C 309.538,107.902 306.538,101.235 303.5,94.5 Z"/></g>
<g><path style="opacity:1" fill="#d18276" d="M 319.5,101.5 C 321.065,103.509 322.065,105.843 322.5,108.5C 320.166,106.824 319.166,104.491 319.5,101.5 Z"/></g>
<g><path style="opacity:0.525" fill="#8f8f8f" d="M 224.5,107.5 C 226.027,107.427 227.027,108.094 227.5,109.5C 225.973,109.573 224.973,108.906 224.5,107.5 Z"/></g>
<g><path style="opacity:0.31" fill="#9d9d9d" d="M 252.5,69.5 C 252.459,84.8437 252.792,100.177 253.5,115.5C 252.069,106.039 251.402,96.3724 251.5,86.5C 251.501,80.6565 251.834,74.9899 252.5,69.5 Z"/></g>
<g><path style="opacity:0.569" fill="#7d7d7d" d="M 227.5,109.5 C 229.027,109.427 230.027,110.094 230.5,111.5C 228.973,111.573 227.973,110.906 227.5,109.5 Z"/></g>
<g><path style="opacity:0.916" fill="#336076" d="M 179.5,99.5 C 179.643,101.262 179.309,102.929 178.5,104.5C 180.484,105.706 182.484,105.706 184.5,104.5C 185.549,107.08 186.216,109.746 186.5,112.5C 185.87,116.048 184.87,119.381 183.5,122.5C 182.833,123.5 182.167,124.5 181.5,125.5C 180.686,119.266 177.686,116.933 172.5,118.5C 172.5,117.833 172.5,117.167 172.5,116.5C 174.039,110.434 176.372,104.767 179.5,99.5 Z"/></g>
<g><path style="opacity:0.924" fill="#6c6e6d" d="M 205.5,108.5 C 208.734,110.572 209.067,112.905 206.5,115.5C 206.552,113.097 206.219,110.764 205.5,108.5 Z"/></g>
<g><path style="opacity:0.584" fill="#7b7b7b" d="M 285.5,110.5 C 287.027,110.427 288.027,111.094 288.5,112.5C 286.973,112.573 285.973,111.906 285.5,110.5 Z"/></g>
<g><path style="opacity:1" fill="#d58577" d="M 322.5,108.5 C 324.973,113.14 326.64,118.14 327.5,123.5C 327.167,123.5 326.833,123.5 326.5,123.5C 324.75,118.587 323.417,113.587 322.5,108.5 Z"/></g>
<g><path style="opacity:0.012" fill="#f6cbc1" d="M 312.5,114.5 C 313.345,115.671 314.011,117.005 314.5,118.5C 314.5,119.5 314.5,120.5 314.5,121.5C 313.076,119.485 312.41,117.152 312.5,114.5 Z"/></g>
<g><path style="opacity:0.978" fill="#a8170c" d="M 319.5,101.5 C 319.166,104.491 320.166,106.824 322.5,108.5C 323.417,113.587 324.75,118.587 326.5,123.5C 326.808,125.924 326.474,128.257 325.5,130.5C 323.228,131.441 321.228,132.774 319.5,134.5C 319.399,128.51 317.732,123.177 314.5,118.5C 314.011,117.005 313.345,115.671 312.5,114.5C 312.599,111.763 312.265,109.096 311.5,106.5C 313.929,105.735 315.262,104.069 315.5,101.5C 316.833,101.5 318.167,101.5 319.5,101.5 Z"/></g>
<g><path style="opacity:0.218" fill="#c8c8c8" d="M 245.5,111.5 C 247.006,114.356 247.672,117.523 247.5,121C 247.496,123.361 247.163,125.527 246.5,127.5C 246.608,122.13 246.275,116.797 245.5,111.5 Z"/></g>
<g><path style="opacity:0.541" fill="#9cb4d1" d="M 172.5,116.5 C 172.5,117.167 172.5,117.833 172.5,118.5C 172.598,120.553 171.931,122.22 170.5,123.5C 170.41,120.848 171.076,118.515 172.5,116.5 Z"/></g>
<g><path style="opacity:0.153" fill="#a9a9a9" d="M 253.5,115.5 C 254.806,120.616 255.473,125.949 255.5,131.5C 254.043,126.402 253.376,121.069 253.5,115.5 Z"/></g>
<g><path style="opacity:0.914" fill="#2e5590" d="M 181.5,125.5 C 180.949,128.807 180.616,132.14 180.5,135.5C 176.839,132.84 173.172,130.174 169.5,127.5C 169.232,125.901 169.566,124.568 170.5,123.5C 171.931,122.22 172.598,120.553 172.5,118.5C 177.686,116.933 180.686,119.266 181.5,125.5 Z"/></g>
<g><path style="opacity:0.212" fill="#f1b4ac" d="M 314.5,121.5 C 316.871,126.003 317.538,130.669 316.5,135.5C 315.963,130.814 315.296,126.147 314.5,121.5 Z"/></g>
<g><path style="opacity:0.137" fill="#b5cae4" d="M 183.5,122.5 C 182.833,126.833 182.167,131.167 181.5,135.5C 181.167,135.5 180.833,135.5 180.5,135.5C 180.616,132.14 180.949,128.807 181.5,125.5C 182.167,124.5 182.833,123.5 183.5,122.5 Z"/></g>
<g><path style="opacity:0.808" fill="#707070" d="M 283.5,128.5 C 281.383,130.655 278.716,131.655 275.5,131.5C 277.936,130.129 280.603,129.129 283.5,128.5 Z"/></g>
<g><path style="opacity:1" fill="#031059" d="M 169.5,127.5 C 173.172,130.174 176.839,132.84 180.5,135.5C 180.5,139.167 180.5,142.833 180.5,146.5C 179.127,146.657 177.793,146.49 176.5,146C 177.167,145.667 177.833,145.333 178.5,145C 174.5,143.333 174.5,141.667 178.5,140C 178,139.5 177.5,139 177,138.5C 175.117,139.653 174.284,141.319 174.5,143.5C 172.833,143.5 171.167,143.5 169.5,143.5C 168.422,138.226 168.422,132.893 169.5,127.5 Z"/></g>
<g><path style="opacity:0.557" fill="#6a6a6a" d="M 221.5,131.5 C 225.119,132.244 228.785,132.577 232.5,132.5C 231.207,133.158 229.707,133.492 228,133.5C 225.456,133.664 223.29,132.997 221.5,131.5 Z"/></g>
<g><path style="opacity:0.416" fill="#9e9b9e" d="M 197.5,134.5 C 199.027,134.427 200.027,135.094 200.5,136.5C 198.973,136.573 197.973,135.906 197.5,134.5 Z"/></g>
<g><path style="opacity:1" fill="#8f120c" d="M 314.5,118.5 C 317.732,123.177 319.399,128.51 319.5,134.5C 321.228,132.774 323.228,131.441 325.5,130.5C 326.474,128.257 326.808,125.924 326.5,123.5C 326.833,123.5 327.167,123.5 327.5,123.5C 328.768,125.905 329.435,128.572 329.5,131.5C 329.5,135.167 329.5,138.833 329.5,142.5C 326.664,143.776 323.664,144.442 320.5,144.5C 320.567,145.959 320.234,147.292 319.5,148.5C 318.5,148.5 317.5,148.5 316.5,148.5C 316.826,143.546 316.826,139.213 316.5,135.5C 317.538,130.669 316.871,126.003 314.5,121.5C 314.5,120.5 314.5,119.5 314.5,118.5 Z"/></g>
<g><path style="opacity:0.592" fill="#94a6ca" d="M 169.5,127.5 C 168.422,132.893 168.422,138.226 169.5,143.5C 168.206,141.952 167.539,139.952 167.5,137.5C 167.398,133.883 168.065,130.55 169.5,127.5 Z"/></g>
<g><path style="opacity:0.827" fill="#7b7b7b" d="M 257.5,140.5 C 259.027,140.427 260.027,141.094 260.5,142.5C 258.973,142.573 257.973,141.906 257.5,140.5 Z"/></g>
<g><path style="opacity:1" fill="#ba655d" d="M 329.5,131.5 C 331.067,134.917 331.567,138.583 331,142.5C 327.507,145.163 323.673,147.163 319.5,148.5C 320.234,147.292 320.567,145.959 320.5,144.5C 323.664,144.442 326.664,143.776 329.5,142.5C 329.5,138.833 329.5,135.167 329.5,131.5 Z"/></g>
<g><path style="opacity:1" fill="#575f93" d="M 185.5,137.5 C 190.205,139.853 194.872,142.186 199.5,144.5C 197.143,144.663 194.81,144.497 192.5,144C 191.33,142.245 189.663,141.245 187.5,141C 186.695,139.887 186.028,138.721 185.5,137.5 Z"/></g>
<g><path style="opacity:0.917" fill="#ac2d29" d="M 316.5,135.5 C 316.826,139.213 316.826,143.546 316.5,148.5C 317.5,148.5 318.5,148.5 319.5,148.5C 317.491,150.065 315.157,151.065 312.5,151.5C 310.447,151.402 308.78,152.069 307.5,153.5C 304.5,153.5 301.5,153.5 298.5,153.5C 298.664,147.569 301.664,143.903 307.5,142.5C 308.612,141.735 309.279,140.735 309.5,139.5C 311.663,137.917 313.996,136.584 316.5,135.5 Z"/></g>
<g><path style="opacity:1" fill="#757ca9" d="M 199.5,144.5 C 201.786,144.595 203.786,145.262 205.5,146.5C 204.178,146.33 203.011,146.663 202,147.5C 201.302,146.309 200.469,145.309 199.5,144.5 Z"/></g>
<g><path style="opacity:0.922" fill="#973d40" d="M 309.5,139.5 C 309.279,140.735 308.612,141.735 307.5,142.5C 301.664,143.903 298.664,147.569 298.5,153.5C 301.5,153.5 304.5,153.5 307.5,153.5C 306.791,154.404 305.791,154.737 304.5,154.5C 302.5,154.833 300.5,155.167 298.5,155.5C 296.712,155.785 295.045,155.452 293.5,154.5C 295.441,152.684 296.108,150.684 295.5,148.5C 292.904,147.787 290.237,147.787 287.5,148.5C 294.918,145.911 302.251,142.911 309.5,139.5 Z"/></g>
<g><path style="opacity:1" fill="#5d669c" d="M 181.5,149.5 C 186.375,149.369 190.375,151.036 193.5,154.5C 189.111,153.597 185.111,151.931 181.5,149.5 Z"/></g>
<g><path style="opacity:0.988" fill="#222b6d" d="M 180.5,135.5 C 180.833,135.5 181.167,135.5 181.5,135.5C 183.153,135.66 184.486,136.326 185.5,137.5C 186.028,138.721 186.695,139.887 187.5,141C 189.663,141.245 191.33,142.245 192.5,144C 194.81,144.497 197.143,144.663 199.5,144.5C 200.469,145.309 201.302,146.309 202,147.5C 203.011,146.663 204.178,146.33 205.5,146.5C 212.276,148.194 218.943,149.861 225.5,151.5C 222.813,151.336 220.146,151.503 217.5,152C 221.17,152.548 224.837,153.048 228.5,153.5C 228.808,155.924 228.474,158.257 227.5,160.5C 226.004,156.665 225.004,156.665 224.5,160.5C 223.167,160.5 221.833,160.5 220.5,160.5C 218.5,160.5 216.5,160.5 214.5,160.5C 212.162,158.96 209.495,158.294 206.5,158.5C 206.167,158.5 205.833,158.5 205.5,158.5C 203.044,156.132 200.044,155.132 196.5,155.5C 195.209,155.737 194.209,155.404 193.5,154.5C 190.375,151.036 186.375,149.369 181.5,149.5C 177.182,148.008 173.182,146.008 169.5,143.5C 171.167,143.5 172.833,143.5 174.5,143.5C 174.284,141.319 175.117,139.653 177,138.5C 177.5,139 178,139.5 178.5,140C 174.5,141.667 174.5,143.333 178.5,145C 177.833,145.333 177.167,145.667 176.5,146C 177.793,146.49 179.127,146.657 180.5,146.5C 180.5,142.833 180.5,139.167 180.5,135.5 Z"/></g>
<g><path style="opacity:0.086" fill="#c0bed6" d="M 226.5,151.5 C 234.002,151.923 241.335,152.59 248.5,153.5C 248.167,153.5 247.833,153.5 247.5,153.5C 241.824,153.666 236.157,153.499 230.5,153C 228.942,152.79 227.609,152.29 226.5,151.5 Z"/></g>
<g><path style="opacity:0.902" fill="#aa98a8" d="M 273.5,151.5 C 273.158,152.338 272.492,152.672 271.5,152.5C 264.557,153.427 257.557,153.76 250.5,153.5C 257.995,152.549 265.661,151.882 273.5,151.5 Z"/></g>
<g><path style="opacity:0.918" fill="#752a39" d="M 298.5,155.5 C 297.5,156.167 296.5,156.833 295.5,157.5C 292.843,157.83 290.176,158.163 287.5,158.5C 286.167,158.167 284.833,157.833 283.5,157.5C 284.981,156.056 284.648,155.389 282.5,155.5C 281.355,154.207 281.689,153.041 283.5,152C 282.833,151.667 282.167,151.333 281.5,151C 282.416,150.722 283.082,150.222 283.5,149.5C 284.568,148.566 285.901,148.232 287.5,148.5C 290.237,147.787 292.904,147.787 295.5,148.5C 296.108,150.684 295.441,152.684 293.5,154.5C 295.045,155.452 296.712,155.785 298.5,155.5 Z"/></g>
<g><path style="opacity:0.196" fill="#f0b9b6" d="M 312.5,151.5 C 311.22,152.931 309.553,153.598 307.5,153.5C 308.78,152.069 310.447,151.402 312.5,151.5 Z"/></g>
<g><path style="opacity:0.92" fill="#612c45" d="M 283.5,149.5 C 283.082,150.222 282.416,150.722 281.5,151C 282.167,151.333 282.833,151.667 283.5,152C 281.689,153.041 281.355,154.207 282.5,155.5C 282.047,156.458 281.381,157.292 280.5,158C 281.308,158.308 281.975,158.808 282.5,159.5C 281.398,160.176 280.398,160.842 279.5,161.5C 279.167,161.5 278.833,161.5 278.5,161.5C 276.167,161.5 273.833,161.5 271.5,161.5C 271.426,159.589 270.426,158.422 268.5,158C 269.448,157.517 270.448,157.351 271.5,157.5C 271.5,155.833 271.5,154.167 271.5,152.5C 272.492,152.672 273.158,152.338 273.5,151.5C 276.627,150.419 279.96,149.753 283.5,149.5 Z"/></g>
<g><path style="opacity:0.919" fill="#a06d78" d="M 282.5,155.5 C 284.648,155.389 284.981,156.056 283.5,157.5C 284.833,157.833 286.167,158.167 287.5,158.5C 290.176,158.163 292.843,157.83 295.5,157.5C 290.497,159.706 285.164,161.039 279.5,161.5C 280.398,160.842 281.398,160.176 282.5,159.5C 281.975,158.808 281.308,158.308 280.5,158C 281.381,157.292 282.047,156.458 282.5,155.5 Z"/></g>
<g><path style="opacity:0.78" fill="#8a90ba" d="M 196.5,155.5 C 200.044,155.132 203.044,156.132 205.5,158.5C 202.215,158.072 199.215,157.072 196.5,155.5 Z"/></g>
<g><path style="opacity:0.004" fill="#f1d0d5" d="M 304.5,154.5 C 301.916,156.472 298.916,157.472 295.5,157.5C 296.5,156.833 297.5,156.167 298.5,155.5C 300.5,155.167 302.5,154.833 304.5,154.5 Z"/></g>
<g><path style="opacity:0.98" fill="#19174d" d="M 225.5,151.5 C 225.833,151.5 226.167,151.5 226.5,151.5C 227.609,152.29 228.942,152.79 230.5,153C 236.157,153.499 241.824,153.666 247.5,153.5C 249.969,154.317 252.635,154.817 255.5,155C 253.19,155.497 250.857,155.663 248.5,155.5C 248.5,157.833 248.5,160.167 248.5,162.5C 251.059,162.198 253.393,162.532 255.5,163.5C 245.153,163.515 234.819,163.182 224.5,162.5C 224.167,162.5 223.833,162.5 223.5,162.5C 222.5,161.833 221.5,161.167 220.5,160.5C 221.833,160.5 223.167,160.5 224.5,160.5C 225.004,156.665 226.004,156.665 227.5,160.5C 228.474,158.257 228.808,155.924 228.5,153.5C 224.837,153.048 221.17,152.548 217.5,152C 220.146,151.503 222.813,151.336 225.5,151.5 Z"/></g>
<g><path style="opacity:0.682" fill="#8b8db2" d="M 206.5,158.5 C 209.495,158.294 212.162,158.96 214.5,160.5C 211.505,160.706 208.838,160.04 206.5,158.5 Z"/></g>
<g><path style="opacity:0.923" fill="#412b59" d="M 271.5,152.5 C 271.5,154.167 271.5,155.833 271.5,157.5C 270.448,157.351 269.448,157.517 268.5,158C 270.426,158.422 271.426,159.589 271.5,161.5C 267.361,162.563 263.028,163.23 258.5,163.5C 257.5,163.5 256.5,163.5 255.5,163.5C 253.393,162.532 251.059,162.198 248.5,162.5C 248.5,160.167 248.5,157.833 248.5,155.5C 250.857,155.663 253.19,155.497 255.5,155C 252.635,154.817 249.969,154.317 247.5,153.5C 247.833,153.5 248.167,153.5 248.5,153.5C 249.167,153.5 249.833,153.5 250.5,153.5C 257.557,153.76 264.557,153.427 271.5,152.5 Z"/></g>
<g><path style="opacity:0.49" fill="#979cbd" d="M 214.5,160.5 C 216.5,160.5 218.5,160.5 220.5,160.5C 221.5,161.167 222.5,161.833 223.5,162.5C 220.273,162.324 217.273,161.657 214.5,160.5 Z"/></g>
<g><path style="opacity:0.247" fill="#bda9ba" d="M 271.5,161.5 C 273.833,161.5 276.167,161.5 278.5,161.5C 272.101,163.415 265.435,164.415 258.5,164.5C 258.5,164.167 258.5,163.833 258.5,163.5C 263.028,163.23 267.361,162.563 271.5,161.5 Z"/></g>
<g><path style="opacity:0.694" fill="#7d7895" d="M 224.5,162.5 C 234.819,163.182 245.153,163.515 255.5,163.5C 256.5,163.5 257.5,163.5 258.5,163.5C 258.5,163.833 258.5,164.167 258.5,164.5C 249.827,164.666 241.16,164.5 232.5,164C 229.635,163.817 226.969,163.317 224.5,162.5 Z"/></g>
<g><path style="opacity:0.463" fill="#8e8c8e" d="M 193.5,187.5 C 196.287,186.523 199.287,186.19 202.5,186.5C 202.5,184.833 202.5,183.167 202.5,181.5C 193.167,181.5 183.833,181.5 174.5,181.5C 174.5,183.167 174.5,184.833 174.5,186.5C 177.713,186.19 180.713,186.523 183.5,187.5C 183.167,187.5 182.833,187.5 182.5,187.5C 179.5,187.5 176.5,187.5 173.5,187.5C 173.5,185.167 173.5,182.833 173.5,180.5C 183.5,180.5 193.5,180.5 203.5,180.5C 203.5,182.833 203.5,185.167 203.5,187.5C 200.167,187.5 196.833,187.5 193.5,187.5 Z"/></g>
<g><path style="opacity:0.463" fill="#c8c8c8" d="M 430.5,181.5 C 427.833,181.5 425.167,181.5 422.5,181.5C 422.5,191.833 422.5,202.167 422.5,212.5C 422.167,212.5 421.833,212.5 421.5,212.5C 421.5,201.833 421.5,191.167 421.5,180.5C 424.713,180.19 427.713,180.523 430.5,181.5 Z"/></g>
<g><path style="opacity:0.999" fill="#282426" d="M 360.5,182.5 C 362.967,187.57 364.634,192.903 365.5,198.5C 365.369,199.376 365.702,200.043 366.5,200.5C 367.386,199.675 367.719,198.675 367.5,197.5C 369.159,193.483 370.492,193.65 371.5,198C 371.245,199.326 370.578,200.326 369.5,201C 372.028,202.017 372.028,203.184 369.5,204.5C 370.127,205.417 370.461,206.417 370.5,207.5C 370.672,214.196 367.672,216.196 361.5,213.5C 358.69,207.403 356.69,201.07 355.5,194.5C 355.539,193.244 355.039,192.244 354,191.5C 353.5,198.826 353.334,206.159 353.5,213.5C 351.167,213.5 348.833,213.5 346.5,213.5C 346.5,202.833 346.5,192.167 346.5,181.5C 351.263,181.226 355.93,181.559 360.5,182.5 Z"/></g>
<g><path style="opacity:0.999" fill="#221f20" d="M 139.5,181.5 C 139.5,192.167 139.5,202.833 139.5,213.5C 136.5,213.5 133.5,213.5 130.5,213.5C 130.5,202.833 130.5,192.167 130.5,181.5C 133.5,181.5 136.5,181.5 139.5,181.5 Z"/></g>
<g><path style="opacity:0.999" fill="#2d2a2b" d="M 161.5,181.5 C 169.735,183.071 174.069,188.071 174.5,196.5C 174.028,206.299 169.028,211.966 159.5,213.5C 154.167,213.5 148.833,213.5 143.5,213.5C 143.5,202.833 143.5,192.167 143.5,181.5C 149.5,181.5 155.5,181.5 161.5,181.5 Z M 153.5,187.5 C 159.346,187.678 162.679,190.678 163.5,196.5C 163.573,203.397 160.239,207.063 153.5,207.5C 153.5,200.833 153.5,194.167 153.5,187.5 Z"/></g>
<g><path style="opacity:1" fill="#282425" d="M 244.5,181.5 C 250.487,183.613 251.987,187.613 249,193.5C 247.745,194.211 246.579,195.044 245.5,196C 251.672,197.508 253.839,201.341 252,207.5C 250.189,211.655 247.023,213.655 242.5,213.5C 236.833,213.5 231.167,213.5 225.5,213.5C 225.5,202.833 225.5,192.167 225.5,181.5C 231.833,181.5 238.167,181.5 244.5,181.5 Z M 235.5,186.5 C 238.244,186.2 239.911,187.367 240.5,190C 240.138,191.434 239.472,192.601 238.5,193.5C 237.5,193.5 236.5,193.5 235.5,193.5C 235.5,191.167 235.5,188.833 235.5,186.5 Z M 235.5,199.5 C 238.916,198.866 240.916,200.2 241.5,203.5C 241.66,205.355 240.993,206.688 239.5,207.5C 238.167,207.5 236.833,207.5 235.5,207.5C 235.5,204.833 235.5,202.167 235.5,199.5 Z"/></g>
<g><path style="opacity:1" fill="#262324" d="M 116.5,193.5 C 119.604,192.225 122.604,192.225 125.5,193.5C 125.5,195.5 125.5,197.5 125.5,199.5C 122.167,199.5 118.833,199.5 115.5,199.5C 115.194,202.385 115.527,205.052 116.5,207.5C 120.167,207.5 123.833,207.5 127.5,207.5C 127.5,209.5 127.5,211.5 127.5,213.5C 120.5,213.5 113.5,213.5 106.5,213.5C 106.5,202.833 106.5,192.167 106.5,181.5C 112.833,181.5 119.167,181.5 125.5,181.5C 125.5,183.167 125.5,184.833 125.5,186.5C 122.167,186.5 118.833,186.5 115.5,186.5C 115.198,189.059 115.532,191.393 116.5,193.5 Z"/></g>
<g><path style="opacity:0.227" fill="#cbcaca" d="M 139.5,180.5 C 140.495,191.654 140.828,202.988 140.5,214.5C 136.629,214.815 132.962,214.482 129.5,213.5C 129.833,213.5 130.167,213.5 130.5,213.5C 133.5,213.5 136.5,213.5 139.5,213.5C 139.5,202.833 139.5,192.167 139.5,181.5C 139.5,181.167 139.5,180.833 139.5,180.5 Z"/></g>
<g><path style="opacity:1" fill="#221e20" d="M 193.5,187.5 C 192.507,195.984 192.174,204.651 192.5,213.5C 189.5,213.5 186.5,213.5 183.5,213.5C 183.5,204.833 183.5,196.167 183.5,187.5C 180.713,186.523 177.713,186.19 174.5,186.5C 174.5,184.833 174.5,183.167 174.5,181.5C 183.833,181.5 193.167,181.5 202.5,181.5C 202.5,183.167 202.5,184.833 202.5,186.5C 199.287,186.19 196.287,186.523 193.5,187.5 Z"/></g>
<g><path style="opacity:1" fill="#221f20" d="M 372.5,181.5 C 376.833,181.5 381.167,181.5 385.5,181.5C 385.5,192.167 385.5,202.833 385.5,213.5C 382.5,213.5 379.5,213.5 376.5,213.5C 376.666,206.159 376.5,198.826 376,191.5C 375.209,192.745 374.709,194.078 374.5,195.5C 374.5,196.167 374.5,196.833 374.5,197.5C 373,195.816 371.333,194.149 369.5,192.5C 370.246,191.264 370.579,189.93 370.5,188.5C 371.873,188.657 373.207,188.49 374.5,188C 373.529,186.796 372.529,186.296 371.5,186.5C 372.309,184.929 372.643,183.262 372.5,181.5 Z"/></g>
<g><path style="opacity:0.466" fill="#969596" d="M 372.5,181.5 C 376.97,180.514 381.637,180.181 386.5,180.5C 386.172,191.346 386.506,202.013 387.5,212.5C 387.5,212.833 387.5,213.167 387.5,213.5C 386.833,213.5 386.167,213.5 385.5,213.5C 385.5,202.833 385.5,192.167 385.5,181.5C 381.167,181.5 376.833,181.5 372.5,181.5 Z"/></g>
<g><path style="opacity:1" fill="#282526" d="M 430.5,181.5 C 434.984,186.467 438.984,191.8 442.5,197.5C 442.369,198.376 442.702,199.043 443.5,199.5C 444.496,193.537 444.829,187.537 444.5,181.5C 446.833,181.5 449.167,181.5 451.5,181.5C 451.5,192.167 451.5,202.833 451.5,213.5C 448.763,213.599 446.096,213.265 443.5,212.5C 439.166,207.329 435,201.995 431,196.5C 430.501,202.491 430.334,208.491 430.5,214.5C 427.302,215.036 424.635,214.369 422.5,212.5C 422.5,202.167 422.5,191.833 422.5,181.5C 425.167,181.5 427.833,181.5 430.5,181.5 Z"/></g>
<g><path style="opacity:0.698" fill="#767575" d="M 476.5,181.5 C 476.5,181.167 476.5,180.833 476.5,180.5C 479.167,180.5 481.833,180.5 484.5,180.5C 484.5,191.833 484.5,203.167 484.5,214.5C 481.941,214.802 479.607,214.468 477.5,213.5C 479.5,213.5 481.5,213.5 483.5,213.5C 483.5,202.833 483.5,192.167 483.5,181.5C 481.167,181.5 478.833,181.5 476.5,181.5 Z"/></g>
<g><path style="opacity:0.667" fill="#737272" d="M 139.5,180.5 C 139.5,180.833 139.5,181.167 139.5,181.5C 136.5,181.5 133.5,181.5 130.5,181.5C 130.5,192.167 130.5,202.833 130.5,213.5C 130.167,213.5 129.833,213.5 129.5,213.5C 129.5,202.5 129.5,191.5 129.5,180.5C 132.833,180.5 136.167,180.5 139.5,180.5 Z"/></g>
<g><path style="opacity:0.522" fill="#9d9b9c" d="M 161.5,181.5 C 155.5,181.5 149.5,181.5 143.5,181.5C 143.5,192.167 143.5,202.833 143.5,213.5C 148.833,213.5 154.167,213.5 159.5,213.5C 154.025,214.489 148.358,214.822 142.5,214.5C 142.5,203.167 142.5,191.833 142.5,180.5C 149.022,180.177 155.355,180.51 161.5,181.5 Z"/></g>
<g><path style="opacity:0.49" fill="#a19f9f" d="M 462.5,181.5 C 460.167,181.5 457.833,181.5 455.5,181.5C 455.5,192.167 455.5,202.833 455.5,213.5C 457.833,213.5 460.167,213.5 462.5,213.5C 462.334,207.491 462.501,201.491 463,195.5C 463.717,196.044 464.217,196.711 464.5,197.5C 463.511,202.975 463.178,208.642 463.5,214.5C 460.5,214.5 457.5,214.5 454.5,214.5C 454.5,203.167 454.5,191.833 454.5,180.5C 457.385,180.194 460.052,180.527 462.5,181.5 Z"/></g>
<g><path style="opacity:0.357" fill="#a7a3a5" d="M 116.5,193.5 C 115.532,191.393 115.198,189.059 115.5,186.5C 118.833,186.5 122.167,186.5 125.5,186.5C 125.5,184.833 125.5,183.167 125.5,181.5C 119.167,181.5 112.833,181.5 106.5,181.5C 106.5,192.167 106.5,202.833 106.5,213.5C 113.5,213.5 120.5,213.5 127.5,213.5C 127.5,211.5 127.5,209.5 127.5,207.5C 128.468,209.607 128.802,211.941 128.5,214.5C 120.833,214.5 113.167,214.5 105.5,214.5C 105.5,203.167 105.5,191.833 105.5,180.5C 112.5,180.5 119.5,180.5 126.5,180.5C 126.5,182.833 126.5,185.167 126.5,187.5C 123.167,187.5 119.833,187.5 116.5,187.5C 116.5,189.5 116.5,191.5 116.5,193.5 Z"/></g>
<g><path style="opacity:0.235" fill="#c1bebf" d="M 360.5,182.5 C 355.93,181.559 351.263,181.226 346.5,181.5C 346.5,192.167 346.5,202.833 346.5,213.5C 348.833,213.5 351.167,213.5 353.5,213.5C 353.833,213.5 354.167,213.5 354.5,213.5C 351.713,214.477 348.713,214.81 345.5,214.5C 345.5,203.167 345.5,191.833 345.5,180.5C 350.944,179.892 355.944,180.558 360.5,182.5 Z"/></g>
<g><path style="opacity:1" fill="#211e1f" d="M 408.5,181.5 C 409.373,186.423 409.373,192.09 408.5,198.5C 407.5,198.5 406.5,198.5 405.5,198.5C 405.539,197.417 405.873,196.417 406.5,195.5C 404.187,194.029 403.853,192.196 405.5,190C 405.258,186.857 403.924,186.023 401.5,187.5C 400.263,187.444 399.263,186.944 398.5,186C 400.107,184.951 400.773,183.451 400.5,181.5C 403.167,181.5 405.833,181.5 408.5,181.5 Z"/></g>
<g><path style="opacity:0.031" fill="#dcdcdc" d="M 69.5,186.5 C 69.38,187.586 68.7133,188.253 67.5,188.5C 66.5836,188.457 65.9169,188.124 65.5,187.5C 66.9587,187.567 68.2921,187.234 69.5,186.5 Z"/></g>
<g><path style="opacity:0.075" fill="#d3d0d0" d="M 309.5,186.5 C 309.38,187.586 308.713,188.253 307.5,188.5C 306.584,188.457 305.917,188.124 305.5,187.5C 306.959,187.567 308.292,187.234 309.5,186.5 Z"/></g>
<g><path style="opacity:1" fill="#514e4f" d="M 408.5,181.5 C 405.833,181.5 403.167,181.5 400.5,181.5C 400.773,183.451 400.107,184.951 398.5,186C 399.263,186.944 400.263,187.444 401.5,187.5C 403.924,186.023 405.258,186.857 405.5,190C 403.853,192.196 404.187,194.029 406.5,195.5C 405.873,196.417 405.539,197.417 405.5,198.5C 404.224,196.438 403.39,194.104 403,191.5C 402.434,193.723 401.6,195.723 400.5,197.5C 400.461,196.417 400.127,195.417 399.5,194.5C 401.759,191.584 401.093,189.251 397.5,187.5C 397.586,185.323 398.253,183.323 399.5,181.5C 402.645,180.197 405.645,180.197 408.5,181.5 Z"/></g>
<g><path style="opacity:1" fill="#3d3a3b" d="M 211.5,192.5 C 210.609,193.11 209.609,193.443 208.5,193.5C 207.711,193.783 207.044,194.283 206.5,195C 207.71,196.039 208.71,197.206 209.5,198.5C 207.5,198.5 205.5,198.5 203.5,198.5C 204.362,196.905 204.862,195.238 205,193.5C 204.667,192.833 204.333,192.167 204,191.5C 202.989,192.337 201.822,192.67 200.5,192.5C 200.5,194.167 200.5,195.833 200.5,197.5C 199.037,189.816 202.371,186.982 210.5,189C 212.495,189.924 212.828,191.09 211.5,192.5 Z"/></g>
<g><path style="opacity:0.153" fill="#e0dfdf" d="M 476.5,180.5 C 476.5,180.833 476.5,181.167 476.5,181.5C 476.666,187.176 476.499,192.843 476,198.5C 475.283,197.956 474.783,197.289 474.5,196.5C 475.167,191.167 475.833,185.833 476.5,180.5 Z"/></g>
<g><path style="opacity:1" fill="#302d2e" d="M 69.5,186.5 C 68.2921,187.234 66.9587,187.567 65.5,187.5C 56.4719,188.027 52.9719,192.694 55,201.5C 55.8333,203.667 57.3333,205.167 59.5,206C 63.0252,206.179 66.3586,206.679 69.5,207.5C 69.6427,209.262 69.3094,210.929 68.5,212.5C 63.5075,213.592 58.5075,213.592 53.5,212.5C 47.282,210.285 43.6153,205.952 42.5,199.5C 44.5459,183.462 53.5459,177.295 69.5,181C 70.3081,181.308 70.9747,181.808 71.5,182.5C 70.8201,183.86 70.1534,185.193 69.5,186.5 Z"/></g>
<g><path style="opacity:0.272" fill="#aeabac" d="M 182.5,187.5 C 182.833,187.5 183.167,187.5 183.5,187.5C 183.5,196.167 183.5,204.833 183.5,213.5C 186.5,213.5 189.5,213.5 192.5,213.5C 192.174,204.651 192.507,195.984 193.5,187.5C 193.5,196.5 193.5,205.5 193.5,214.5C 189.833,214.5 186.167,214.5 182.5,214.5C 182.5,205.5 182.5,196.5 182.5,187.5 Z"/></g>
<g><path style="opacity:0.255" fill="#b5b4b4" d="M 443.5,212.5 C 446.096,213.265 448.763,213.599 451.5,213.5C 451.5,202.833 451.5,192.167 451.5,181.5C 449.167,181.5 446.833,181.5 444.5,181.5C 444.829,187.537 444.496,193.537 443.5,199.5C 442.702,199.043 442.369,198.376 442.5,197.5C 443.489,192.025 443.822,186.358 443.5,180.5C 446.5,180.5 449.5,180.5 452.5,180.5C 452.5,191.833 452.5,203.167 452.5,214.5C 449.813,214.664 447.146,214.497 444.5,214C 443.944,213.617 443.611,213.117 443.5,212.5 Z"/></g>
<g><path style="opacity:0.075" fill="#bdbdbd" d="M 211.5,192.5 C 210.947,194.552 209.947,194.885 208.5,193.5C 209.609,193.443 210.609,193.11 211.5,192.5 Z"/></g>
<g><path style="opacity:0.416" fill="#9e9c9d" d="M 235.5,186.5 C 235.5,188.833 235.5,191.167 235.5,193.5C 236.5,193.5 237.5,193.5 238.5,193.5C 237.432,194.434 236.099,194.768 234.5,194.5C 234.194,191.615 234.527,188.948 235.5,186.5 Z"/></g>
<g><path style="opacity:0.855" fill="#605f60" d="M 222.5,197.5 C 219.313,196.194 215.98,196.194 212.5,197.5C 213.243,198.182 213.909,198.849 214.5,199.5C 213.5,199.5 212.5,199.5 211.5,199.5C 211.5,198.833 211.167,198.5 210.5,198.5C 210.804,197.85 211.137,197.183 211.5,196.5C 215.377,195.803 219.21,195.136 223,194.5C 223.74,195.749 223.573,196.749 222.5,197.5 Z"/></g>
<g><path style="opacity:0.999" fill="#4e4b4c" d="M 372.5,181.5 C 372.643,183.262 372.309,184.929 371.5,186.5C 372.529,186.296 373.529,186.796 374.5,188C 373.207,188.49 371.873,188.657 370.5,188.5C 370.579,189.93 370.246,191.264 369.5,192.5C 371.333,194.149 373,195.816 374.5,197.5C 373.733,201.149 372.4,204.482 370.5,207.5C 370.461,206.417 370.127,205.417 369.5,204.5C 372.028,203.184 372.028,202.017 369.5,201C 370.578,200.326 371.245,199.326 371.5,198C 370.492,193.65 369.159,193.483 367.5,197.5C 368.39,191.834 370.057,186.5 372.5,181.5 Z"/></g>
<g><path style="opacity:0.59" fill="#949293" d="M 244.5,181.5 C 238.167,181.5 231.833,181.5 225.5,181.5C 225.5,192.167 225.5,202.833 225.5,213.5C 231.167,213.5 236.833,213.5 242.5,213.5C 236.69,214.49 230.69,214.823 224.5,214.5C 224.5,203.167 224.5,191.833 224.5,180.5C 231.354,180.176 238.021,180.509 244.5,181.5 Z"/></g>
<g><path style="opacity:1" fill="#302c2d" d="M 309.5,186.5 C 308.292,187.234 306.959,187.567 305.5,187.5C 300.505,187.261 296.838,189.261 294.5,193.5C 293.518,196.962 293.185,200.629 293.5,204.5C 294.5,204.5 295.5,204.5 296.5,204.5C 300.614,206.117 304.947,206.951 309.5,207C 310.358,208.57 311.025,210.237 311.5,212C 311.164,213.03 310.497,213.53 309.5,213.5C 304.13,213.608 298.797,213.275 293.5,212.5C 283.342,207.241 280.509,199.241 285,188.5C 292.459,179.925 301.293,177.925 311.5,182.5C 311.006,184.026 310.339,185.359 309.5,186.5 Z"/></g>
<g><path style="opacity:0.235" fill="#b7b5b6" d="M 125.5,193.5 C 126.468,195.607 126.802,197.941 126.5,200.5C 123.167,200.5 119.833,200.5 116.5,200.5C 116.5,202.833 116.5,205.167 116.5,207.5C 115.527,205.052 115.194,202.385 115.5,199.5C 118.833,199.5 122.167,199.5 125.5,199.5C 125.5,197.5 125.5,195.5 125.5,193.5 Z"/></g>
<g><path style="opacity:0.565" fill="#a4a0a2" d="M 367.5,197.5 C 367.719,198.675 367.386,199.675 366.5,200.5C 365.702,200.043 365.369,199.376 365.5,198.5C 366.167,198.167 366.833,197.833 367.5,197.5 Z"/></g>
<g><path style="opacity:0.263" fill="#d5d1d4" d="M 222.5,198.5 C 221.158,200.361 220.158,202.361 219.5,204.5C 219.5,202.5 219.5,200.5 219.5,198.5C 220.5,198.5 221.5,198.5 222.5,198.5 Z"/></g>
<g><path style="opacity:1" fill="#2b2829" d="M 284.5,211.5 C 281.663,213.402 278.329,214.069 274.5,213.5C 273.434,211.299 272.767,208.965 272.5,206.5C 268.702,205.517 264.702,205.183 260.5,205.5C 260.5,207.167 260.5,208.833 260.5,210.5C 260.443,211.609 260.11,212.609 259.5,213.5C 256.615,213.806 253.948,213.473 251.5,212.5C 255.367,202.071 259.534,191.737 264,181.5C 267.125,180.213 270.291,180.213 273.5,181.5C 277.744,191.314 281.41,201.314 284.5,211.5 Z M 266.5,192.5 C 268.343,194.547 269.676,197.047 270.5,200C 268.421,200.808 266.421,200.641 264.5,199.5C 265.946,197.382 266.613,195.049 266.5,192.5 Z"/></g>
<g><path style="opacity:0.408" fill="#aaa8a9" d="M 83.5,192.5 C 82.5184,189.038 82.185,185.371 82.5,181.5C 79.5,181.5 76.5,181.5 73.5,181.5C 73.5,192.167 73.5,202.833 73.5,213.5C 76.5,213.5 79.5,213.5 82.5,213.5C 82.5,208.5 82.5,203.5 82.5,198.5C 86.1667,198.5 89.8333,198.5 93.5,198.5C 93.5,203.5 93.5,208.5 93.5,213.5C 96.5,213.5 99.5,213.5 102.5,213.5C 102.5,202.833 102.5,192.167 102.5,181.5C 99.5,181.5 96.5,181.5 93.5,181.5C 93.815,185.371 93.4816,189.038 92.5,192.5C 92.5,188.5 92.5,184.5 92.5,180.5C 96.1667,180.5 99.8333,180.5 103.5,180.5C 103.5,191.833 103.5,203.167 103.5,214.5C 99.8333,214.5 96.1667,214.5 92.5,214.5C 92.5,209.5 92.5,204.5 92.5,199.5C 89.5,199.5 86.5,199.5 83.5,199.5C 83.5,204.5 83.5,209.5 83.5,214.5C 79.8333,214.5 76.1667,214.5 72.5,214.5C 72.5,203.167 72.5,191.833 72.5,180.5C 76.1667,180.5 79.8333,180.5 83.5,180.5C 83.5,184.5 83.5,188.5 83.5,192.5 Z"/></g>
<g><path style="opacity:0.999" fill="#242122" d="M 83.5,192.5 C 86.5,191.167 89.5,191.167 92.5,192.5C 93.4816,189.038 93.815,185.371 93.5,181.5C 96.5,181.5 99.5,181.5 102.5,181.5C 102.5,192.167 102.5,202.833 102.5,213.5C 99.5,213.5 96.5,213.5 93.5,213.5C 93.5,208.5 93.5,203.5 93.5,198.5C 89.8333,198.5 86.1667,198.5 82.5,198.5C 82.5,203.5 82.5,208.5 82.5,213.5C 79.5,213.5 76.5,213.5 73.5,213.5C 73.5,202.833 73.5,192.167 73.5,181.5C 76.5,181.5 79.5,181.5 82.5,181.5C 82.185,185.371 82.5184,189.038 83.5,192.5 Z"/></g>
<g><path style="opacity:0.993" fill="#6c6a6b" d="M 294.5,193.5 C 294.111,197.414 294.778,201.08 296.5,204.5C 295.5,204.5 294.5,204.5 293.5,204.5C 293.185,200.629 293.518,196.962 294.5,193.5 Z"/></g>
<g><path style="opacity:1" fill="#2e2b2c" d="M 408.5,181.5 C 413.267,191.455 417.267,201.789 420.5,212.5C 416.695,214.008 413.028,213.675 409.5,211.5C 408.661,210.359 407.994,209.026 407.5,207.5C 404.167,206.167 400.833,206.167 397.5,207.5C 396.864,209.78 395.864,211.78 394.5,213.5C 392.167,213.5 389.833,213.5 387.5,213.5C 387.5,213.167 387.5,212.833 387.5,212.5C 390.037,203.772 393.371,195.438 397.5,187.5C 401.093,189.251 401.759,191.584 399.5,194.5C 400.127,195.417 400.461,196.417 400.5,197.5C 400.5,198.5 400.5,199.5 400.5,200.5C 402.781,200.923 404.448,200.256 405.5,198.5C 406.5,198.5 407.5,198.5 408.5,198.5C 409.373,192.09 409.373,186.423 408.5,181.5 Z M 405.5,198.5 C 404.448,200.256 402.781,200.923 400.5,200.5C 400.5,199.5 400.5,198.5 400.5,197.5C 401.6,195.723 402.434,193.723 403,191.5C 403.39,194.104 404.224,196.438 405.5,198.5 Z"/></g>
<g><path style="opacity:0.533" fill="#888586" d="M 355.5,194.5 C 354.51,200.645 354.177,206.978 354.5,213.5C 354.167,213.5 353.833,213.5 353.5,213.5C 353.334,206.159 353.5,198.826 354,191.5C 355.039,192.244 355.539,193.244 355.5,194.5 Z"/></g>
<g><path style="opacity:1" fill="#302d2e" d="M 209.5,198.5 C 209.833,198.5 210.167,198.5 210.5,198.5C 211.167,198.5 211.5,198.833 211.5,199.5C 212.167,200.5 212.833,201.5 213.5,202.5C 214.472,203.751 215.139,203.418 215.5,201.5C 215.457,200.584 215.124,199.917 214.5,199.5C 213.909,198.849 213.243,198.182 212.5,197.5C 215.98,196.194 219.313,196.194 222.5,197.5C 222.5,197.833 222.5,198.167 222.5,198.5C 221.5,198.5 220.5,198.5 219.5,198.5C 219.5,200.5 219.5,202.5 219.5,204.5C 219.392,206.514 220.058,208.18 221.5,209.5C 222.833,210.5 222.833,211.5 221.5,212.5C 219.036,215.216 216.87,214.882 215,211.5C 210.029,215.326 204.862,215.493 199.5,212C 196.351,207.038 197.018,202.705 201.5,199C 200.944,198.617 200.611,198.117 200.5,197.5C 200.5,195.833 200.5,194.167 200.5,192.5C 201.822,192.67 202.989,192.337 204,191.5C 204.333,192.167 204.667,192.833 205,193.5C 204.862,195.238 204.362,196.905 203.5,198.5C 205.5,198.5 207.5,198.5 209.5,198.5 Z M 210.5,207.5 C 209.432,208.434 208.099,208.768 206.5,208.5C 205.387,207.054 205.22,205.387 206,203.5C 207.371,205.041 208.871,206.375 210.5,207.5 Z M 211.5,199.5 C 212.5,199.5 213.5,199.5 214.5,199.5C 214.737,200.791 214.404,201.791 213.5,202.5C 212.833,201.5 212.167,200.5 211.5,199.5 Z"/></g>
<g><path style="opacity:0.29" fill="#afadae" d="M 214.5,199.5 C 215.124,199.917 215.457,200.584 215.5,201.5C 215.139,203.418 214.472,203.751 213.5,202.5C 214.404,201.791 214.737,200.791 214.5,199.5 Z"/></g>
<g><path style="opacity:0.275" fill="#c5c1c3" d="M 235.5,199.5 C 235.5,202.167 235.5,204.833 235.5,207.5C 236.833,207.5 238.167,207.5 239.5,207.5C 238.081,208.451 236.415,208.784 234.5,208.5C 234.19,205.287 234.523,202.287 235.5,199.5 Z"/></g>
<g><path style="opacity:0.418" fill="#8e8c8d" d="M 272.5,206.5 C 269.15,206.335 265.817,206.502 262.5,207C 261.915,208.302 261.249,209.469 260.5,210.5C 260.5,208.833 260.5,207.167 260.5,205.5C 264.702,205.183 268.702,205.517 272.5,206.5 Z"/></g>
<g><path style="opacity:0.357" fill="#a9a7a7" d="M 323.5,192.5 C 322.518,189.038 322.185,185.371 322.5,181.5C 319.5,181.5 316.5,181.5 313.5,181.5C 313.5,192.167 313.5,202.833 313.5,213.5C 316.5,213.5 319.5,213.5 322.5,213.5C 322.5,208.5 322.5,203.5 322.5,198.5C 326.167,198.5 329.833,198.5 333.5,198.5C 333.5,203.5 333.5,208.5 333.5,213.5C 336.5,213.5 339.5,213.5 342.5,213.5C 342.5,202.833 342.5,192.167 342.5,181.5C 339.5,181.5 336.5,181.5 333.5,181.5C 333.815,185.371 333.482,189.038 332.5,192.5C 332.5,188.5 332.5,184.5 332.5,180.5C 336.167,180.5 339.833,180.5 343.5,180.5C 343.5,191.833 343.5,203.167 343.5,214.5C 339.833,214.5 336.167,214.5 332.5,214.5C 332.5,209.5 332.5,204.5 332.5,199.5C 329.5,199.5 326.5,199.5 323.5,199.5C 323.5,204.5 323.5,209.5 323.5,214.5C 319.833,214.5 316.167,214.5 312.5,214.5C 312.5,203.167 312.5,191.833 312.5,180.5C 316.167,180.5 319.833,180.5 323.5,180.5C 323.5,184.5 323.5,188.5 323.5,192.5 Z"/></g>
<g><path style="opacity:0.999" fill="#242122" d="M 323.5,192.5 C 326.5,191.167 329.5,191.167 332.5,192.5C 333.482,189.038 333.815,185.371 333.5,181.5C 336.5,181.5 339.5,181.5 342.5,181.5C 342.5,192.167 342.5,202.833 342.5,213.5C 339.5,213.5 336.5,213.5 333.5,213.5C 333.5,208.5 333.5,203.5 333.5,198.5C 329.833,198.5 326.167,198.5 322.5,198.5C 322.5,203.5 322.5,208.5 322.5,213.5C 319.5,213.5 316.5,213.5 313.5,213.5C 313.5,202.833 313.5,192.167 313.5,181.5C 316.5,181.5 319.5,181.5 322.5,181.5C 322.185,185.371 322.518,189.038 323.5,192.5 Z"/></g>
<g><path style="opacity:0.055" fill="#d0c9d0" d="M 210.5,207.5 C 211.043,207.56 211.376,207.893 211.5,208.5C 209.701,209.788 208.035,209.788 206.5,208.5C 208.099,208.768 209.432,208.434 210.5,207.5 Z"/></g>
<g><path style="opacity:1" fill="#262223" d="M 462.5,181.5 C 467.229,185.898 471.229,190.898 474.5,196.5C 474.783,197.289 475.283,197.956 476,198.5C 476.499,192.843 476.666,187.176 476.5,181.5C 478.833,181.5 481.167,181.5 483.5,181.5C 483.5,192.167 483.5,202.833 483.5,213.5C 481.5,213.5 479.5,213.5 477.5,213.5C 472.439,208.771 468.106,203.438 464.5,197.5C 464.217,196.711 463.717,196.044 463,195.5C 462.501,201.491 462.334,207.491 462.5,213.5C 460.167,213.5 457.833,213.5 455.5,213.5C 455.5,202.833 455.5,192.167 455.5,181.5C 457.833,181.5 460.167,181.5 462.5,181.5 Z"/></g>
<g><path style="opacity:0.22" fill="#c3c1c2" d="M 16.5,208.5 C 15.5946,209.964 15.5946,211.298 16.5,212.5C 13.9781,211.335 13.9781,210.002 16.5,208.5 Z"/></g>
<g><path style="opacity:1" fill="#322f30" d="M 42.5,199.5 C 42.9444,210.223 37.7777,215.556 27,215.5C 23.0982,215.487 19.5982,214.487 16.5,212.5C 15.5946,211.298 15.5946,209.964 16.5,208.5C 16.572,206.689 17.4053,205.356 19,204.5C 21.8991,206.391 25.0658,206.891 28.5,206C 29.5762,204.274 29.7429,202.441 29,200.5C 25.0342,197.536 21.3675,194.203 18,190.5C 15.4961,185.354 16.3294,180.854 20.5,177C 27.7541,172.216 34.7541,172.382 41.5,177.5C 40.6493,179.882 39.316,181.882 37.5,183.5C 34.9159,182.607 32.2492,182.274 29.5,182.5C 30.9952,186.839 33.8285,190.173 38,192.5C 39.7883,194.76 41.2883,197.093 42.5,199.5 Z"/></g>
<g><path style="opacity:0.008" fill="#ededed" d="M 221.5,209.5 C 224.167,210.5 224.167,211.5 221.5,212.5C 222.833,211.5 222.833,210.5 221.5,209.5 Z"/></g>
<g><path style="opacity:0.702" fill="#777576" d="M 69.5,207.5 C 70.4343,208.772 71.101,210.272 71.5,212C 71.0946,212.945 70.428,213.612 69.5,214C 65.1667,214.667 60.8333,214.667 56.5,214C 55.2625,213.768 54.2625,213.268 53.5,212.5C 58.5075,213.592 63.5075,213.592 68.5,212.5C 69.3094,210.929 69.6427,209.262 69.5,207.5 Z"/></g>
<g><path style="opacity:0.227" fill="#cfcece" d="M 251.5,212.5 C 253.948,213.473 256.615,213.806 259.5,213.5C 256.645,214.803 253.645,214.803 250.5,213.5C 250.624,212.893 250.957,212.56 251.5,212.5 Z"/></g>
<g><path style="opacity:0.227" fill="#bebcbc" d="M 284.5,211.5 C 285.404,212.209 285.737,213.209 285.5,214.5C 281.629,214.815 277.962,214.482 274.5,213.5C 278.329,214.069 281.663,213.402 284.5,211.5 Z"/></g>
<g><path style="opacity:0.71" fill="#858384" d="M 293.5,212.5 C 298.797,213.275 304.13,213.608 309.5,213.5C 307.527,214.163 305.361,214.496 303,214.5C 299.523,214.672 296.356,214.006 293.5,212.5 Z"/></g>
<g><path style="opacity:0.227" fill="#c2c0c0" d="M 385.5,213.5 C 386.167,213.5 386.833,213.5 387.5,213.5C 389.833,213.5 392.167,213.5 394.5,213.5C 388.355,214.49 382.022,214.823 375.5,214.5C 375.823,207.978 375.49,201.645 374.5,195.5C 374.709,194.078 375.209,192.745 376,191.5C 376.5,198.826 376.666,206.159 376.5,213.5C 379.5,213.5 382.5,213.5 385.5,213.5 Z"/></g>
<g><path style="opacity:0.227" fill="#cac8c9" d="M 409.5,211.5 C 413.028,213.675 416.695,214.008 420.5,212.5C 420.833,212.5 421.167,212.5 421.5,212.5C 417.971,214.423 413.971,215.089 409.5,214.5C 409.5,213.5 409.5,212.5 409.5,211.5 Z"/></g>
</svg>
